{
  "source": "C:\\Users\\Peter\\Desktop\\stuff\\MIUN\\quantitative_research\\video_compression\\videos\\BVI-HD\\BVI-HD_CDVL_videos\\ORIG\\CarpetCircleFast_1920x1080_60fps.mp4",
  "output": "C:\\Users\\Peter\\Desktop\\stuff\\MIUN\\quantitative_research\\video_compression\\compressed_videos\\BVI-HD\\av1\\8\\CarpetCircleFast_1920x1080_60fps_av1.mkv",
  "codec": "av1",
  "ok": "Input #0, mov,mp4,m4a,3gp,3g2,mj2, from 'C:\\Users\\Peter\\Desktop\\stuff\\MIUN\\quantitative_research\\video_compression\\videos\\BVI-HD\\BVI-HD_CDVL_videos\\ORIG\\CarpetCircleFast_1920x1080_60fps.mp4':\n  Metadata:\n    major_brand     : isom\n    minor_version   : 512\n    compatible_brands: isomiso2avc1mp41\n    encoder         : Lavf54.28.101\n  Duration: 00:00:05.00, start: 0.000000, bitrate: 324759 kb/s\n  Stream #0:0[0x1](und): Video: h264 (High 4:4:4 Predictive) (avc1 / 0x31637661), yuv420p(progressive), 1920x1080, 324754 kb/s, 60 fps, 60 tbr, 60 tbn (default)\n    Metadata:\n      handler_name    : VideoHandler\n      vendor_id       : [0][0][0][0]\n[out#0/matroska @ 00000228ee9acd80] Codec AVOption b:a (set bitrate (in bits/s)) has not been used for any stream. The most likely reason is either wrong type (e.g. a video option with no video streams) or that it is a private option of some decoder which was not actually used for any stream.\nStream mapping:\n  Stream #0:0 -> #0:0 (h264 (native) -> av1 (libsvtav1))\nPress [q] to stop, [?] for help\nSvt[info]: -------------------------------------------\nSvt[info]: SVT [version]:\tSVT-AV1 Encoder Lib v3.1.0-19-g6ecfe8ec\nSvt[info]: SVT [build]  :\tGCC 15.2.0\t 64 bit\nSvt[info]: LIB Build date: Aug 17 2025 11:37:13\nSvt[info]: -------------------------------------------\nSvt[info]: Level of Parallelism: 5\nSvt[info]: Number of PPCS 93\nSvt[info]: [asm level on system : up to avx2]\nSvt[info]: [asm level selected : up to avx2]\nSvt[info]: -------------------------------------------\nSvt[info]: SVT [config]: main profile\ttier (auto)\tlevel (auto)\nSvt[info]: SVT [config]: width / height / fps numerator / fps denominator \t\t: 1920 / 1080 / 60 / 1\nSvt[info]: SVT [config]: bit-depth / color format \t\t\t\t\t: 8 / YUV420\nSvt[info]: SVT [config]: preset / tune / pred struct \t\t\t\t\t: 4 / PSNR / random access\nSvt[info]: SVT [config]: gop size / mini-gop size / key-frame type \t\t\t: 321 / 16 / key frame\nSvt[info]: SVT [config]: BRC mode / target bitrate (kbps)\t\t\t\t: VBR / 8000 \nSvt[info]: SVT [config]: AQ mode / Variance Boost \t\t\t\t\t: 2 / 0\nSvt[info]: SVT [config]: sharpness / luminance-based QP bias \t\t\t\t: 0 / 0\nSvt[info]: SVT [config]: QP scale compress strength \t\t\t\t\t: 0\nSvt[info]: -------------------------------------------\nOutput #0, matroska, to 'C:\\Users\\Peter\\Desktop\\stuff\\MIUN\\quantitative_research\\video_compression\\compressed_videos\\BVI-HD\\av1\\8\\CarpetCircleFast_1920x1080_60fps_av1.mkv':\n  Metadata:\n    major_brand     : isom\n    minor_version   : 512\n    compatible_brands: isomiso2avc1mp41\n    encoder         : Lavf62.3.100\n  Stream #0:0(und): Video: av1 (AV01 / 0x31305641), yuv420p(tv, progressive), 1920x1080, q=2-31, 8000 kb/s, 60 fps, 1k tbn (default)\n    Metadata:\n      encoder         : Lavc62.11.100 libsvtav1\n      handler_name    : VideoHandler\n      vendor_id       : [0][0][0][0]\n    Side data:\n      cpb: bitrate max/min/avg: 0/0/8000000 buffer size: 8000000 vbv_delay: N/A\nframe=    0 fps=0.0 q=0.0 size=       0KiB time=N/A bitrate=N/A speed=N/A elapsed=0:00:01.02    \nframe=    0 fps=0.0 q=0.0 size=       0KiB time=N/A bitrate=N/A speed=N/A elapsed=0:00:01.61    \nframe=    0 fps=0.0 q=0.0 size=       0KiB time=N/A bitrate=N/A speed=N/A elapsed=0:00:02.14    \nframe=    0 fps=0.0 q=0.0 size=       0KiB time=N/A bitrate=N/A speed=N/A elapsed=0:00:02.69    \nframe=    1 fps=0.3 q=7.0 size=       1KiB time=00:00:00.00 bitrate=N/A speed=   0x elapsed=0:00:03.21    \nframe=    4 fps=1.1 q=26.0 size=       1KiB time=00:00:00.05 bitrate= 113.9kbits/s speed=0.0134x elapsed=0:00:03.72    \nframe=    7 fps=1.6 q=21.0 size=       1KiB time=00:00:00.10 bitrate=  57.0kbits/s speed=0.0236x elapsed=0:00:04.24    \nframe=   11 fps=2.3 q=18.0 size=       1KiB time=00:00:00.16 bitrate=  34.2kbits/s speed=0.035x elapsed=0:00:04.76    \nframe=   17 fps=3.2 q=10.0 size=       1KiB time=00:00:00.26 bitrate=  21.4kbits/s speed=0.0504x elapsed=0:00:05.28    \nframe=   21 fps=3.6 q=20.0 size=       1KiB time=00:00:00.33 bitrate=  17.1kbits/s speed=0.0574x elapsed=0:00:05.80    \nframe=   26 fps=4.1 q=18.0 size=       1KiB time=00:00:00.41 bitrate=  13.7kbits/s speed=0.0658x elapsed=0:00:06.33    \nframe=   30 fps=4.4 q=15.0 size=       1KiB time=00:00:00.48 bitrate=  11.8kbits/s speed=0.0703x elapsed=0:00:06.87    \nframe=   34 fps=4.6 q=15.0 size=       1KiB time=00:00:00.55 bitrate=  10.4kbits/s speed=0.0742x elapsed=0:00:07.40    \nframe=   37 fps=4.7 q=16.0 size=       1KiB time=00:00:00.60 bitrate=   9.5kbits/s speed=0.0755x elapsed=0:00:07.94    \nframe=   38 fps=4.5 q=16.0 size=       1KiB time=00:00:00.61 bitrate=   9.2kbits/s speed=0.0728x elapsed=0:00:08.46    \nframe=   40 fps=4.4 q=14.0 size=       1KiB time=00:00:00.65 bitrate=   8.8kbits/s speed=0.0723x elapsed=0:00:08.99    \nframe=   43 fps=4.5 q=23.0 size=       1KiB time=00:00:00.70 bitrate=   8.1kbits/s speed=0.0728x elapsed=0:00:09.61    \nframe=   47 fps=4.6 q=17.0 size=       1KiB time=00:00:00.76 bitrate=   7.4kbits/s speed=0.0752x elapsed=0:00:10.19    \nframe=   51 fps=4.8 q=17.0 size=       1KiB time=00:00:00.83 bitrate=   6.8kbits/s speed=0.0778x elapsed=0:00:10.71    \nframe=   54 fps=4.8 q=17.0 size=       1KiB time=00:00:00.88 bitrate=   6.4kbits/s speed=0.0787x elapsed=0:00:11.23    \nframe=   56 fps=4.8 q=17.0 size=       1KiB time=00:00:00.91 bitrate=   6.2kbits/s speed=0.0781x elapsed=0:00:11.74    \nframe=   61 fps=5.0 q=21.0 size=       1KiB time=00:00:01.00 bitrate=   5.7kbits/s speed=0.0816x elapsed=0:00:12.25    \nframe=   67 fps=5.2 q=24.0 size=       1KiB time=00:00:01.10 bitrate=   5.2kbits/s speed=0.086x elapsed=0:00:12.78    \nframe=   72 fps=5.4 q=21.0 size=       1KiB time=00:00:01.18 bitrate=   4.8kbits/s speed=0.0888x elapsed=0:00:13.32    \nframe=   79 fps=5.7 q=20.0 size=       1KiB time=00:00:01.30 bitrate=   4.4kbits/s speed=0.0937x elapsed=0:00:13.86    \nframe=   84 fps=5.8 q=20.0 size=       1KiB time=00:00:01.38 bitrate=   4.1kbits/s speed=0.0959x elapsed=0:00:14.42    \nframe=   88 fps=5.9 q=21.0 size=       1KiB time=00:00:01.45 bitrate=   3.9kbits/s speed=0.0969x elapsed=0:00:14.96    \nframe=   93 fps=6.0 q=17.0 size=       1KiB time=00:00:01.53 bitrate=   3.7kbits/s speed=0.0988x elapsed=0:00:15.52    \nframe=   97 fps=6.0 q=5.0 size=       1KiB time=00:00:01.60 bitrate=   3.6kbits/s speed=0.0995x elapsed=0:00:16.08    \nframe=  102 fps=6.1 q=16.0 size=       1KiB time=00:00:01.68 bitrate=   3.4kbits/s speed=0.101x elapsed=0:00:16.61    \nframe=  104 fps=6.1 q=17.0 size=       1KiB time=00:00:01.71 bitrate=   3.3kbits/s speed= 0.1x elapsed=0:00:17.12    \nframe=  108 fps=6.1 q=20.0 size=       1KiB time=00:00:01.78 bitrate=   3.2kbits/s speed=0.101x elapsed=0:00:17.64    \nframe=  116 fps=6.4 q=24.0 size=       1KiB time=00:00:01.91 bitrate=   3.0kbits/s speed=0.105x elapsed=0:00:18.19    \nframe=  120 fps=6.4 q=24.0 size=       1KiB time=00:00:01.98 bitrate=   2.9kbits/s speed=0.106x elapsed=0:00:18.71    \nframe=  127 fps=6.6 q=21.0 size=       1KiB time=00:00:02.10 bitrate=   2.7kbits/s speed=0.109x elapsed=0:00:19.24    \nframe=  134 fps=6.8 q=24.0 size=       1KiB time=00:00:02.21 bitrate=   2.6kbits/s speed=0.112x elapsed=0:00:19.76    \nframe=  139 fps=6.8 q=19.0 size=       1KiB time=00:00:02.30 bitrate=   2.5kbits/s speed=0.113x elapsed=0:00:20.29    \nframe=  147 fps=7.1 q=24.0 size=       1KiB time=00:00:02.43 bitrate=   2.3kbits/s speed=0.117x elapsed=0:00:20.82    \nframe=  151 fps=7.1 q=17.0 size=       1KiB time=00:00:02.50 bitrate=   2.3kbits/s speed=0.117x elapsed=0:00:21.33    \nframe=  156 fps=7.1 q=24.0 size=       1KiB time=00:00:02.58 bitrate=   2.2kbits/s speed=0.118x elapsed=0:00:21.86    \nframe=  165 fps=7.4 q=22.0 size=       1KiB time=00:00:02.73 bitrate=   2.1kbits/s speed=0.122x elapsed=0:00:22.38    \nframe=  171 fps=7.5 q=23.0 size=       1KiB time=00:00:02.83 bitrate=   2.0kbits/s speed=0.124x elapsed=0:00:22.91    \nframe=  179 fps=7.6 q=25.0 size=       1KiB time=00:00:02.96 bitrate=   1.9kbits/s speed=0.126x elapsed=0:00:23.48    \nframe=  183 fps=7.6 q=19.0 size=       1KiB time=00:00:03.03 bitrate=   1.9kbits/s speed=0.126x elapsed=0:00:23.99    \nframe=  189 fps=7.7 q=19.0 size=       1KiB time=00:00:03.11 bitrate=   1.8kbits/s speed=0.127x elapsed=0:00:24.52    \nframe=  196 fps=7.8 q=24.0 size=       1KiB time=00:00:03.23 bitrate=   1.8kbits/s speed=0.129x elapsed=0:00:25.04    \nframe=  199 fps=7.8 q=16.0 size=       1KiB time=00:00:03.30 bitrate=   1.7kbits/s speed=0.129x elapsed=0:00:25.58    \nframe=  205 fps=7.8 q=15.0 size=       1KiB time=00:00:03.40 bitrate=   1.7kbits/s speed=0.13x elapsed=0:00:26.11    \nframe=  209 fps=7.8 q=11.0 size=       1KiB time=00:00:03.46 bitrate=   1.6kbits/s speed=0.13x elapsed=0:00:26.64    \nframe=  217 fps=8.0 q=15.0 size=       1KiB time=00:00:03.60 bitrate=   1.6kbits/s speed=0.133x elapsed=0:00:27.16    \nframe=  219 fps=7.9 q=20.0 size=       1KiB time=00:00:03.63 bitrate=   1.6kbits/s speed=0.131x elapsed=0:00:27.67    \nframe=  225 fps=8.0 q=7.0 size=       1KiB time=00:00:03.73 bitrate=   1.5kbits/s speed=0.132x elapsed=0:00:28.19    \nframe=  233 fps=8.1 q=16.0 size=       1KiB time=00:00:03.86 bitrate=   1.5kbits/s speed=0.135x elapsed=0:00:28.73    \nframe=  233 fps=8.0 q=16.0 size=       1KiB time=00:00:03.86 bitrate=   1.5kbits/s speed=0.132x elapsed=0:00:29.23    \nframe=  239 fps=8.0 q=21.0 size=       1KiB time=00:00:03.96 bitrate=   1.4kbits/s speed=0.133x elapsed=0:00:29.76    \nframe=  249 fps=8.2 q=16.0 size=       1KiB time=00:00:04.13 bitrate=   1.4kbits/s speed=0.136x elapsed=0:00:30.29    \nframe=  253 fps=8.2 q=16.0 size=       1KiB time=00:00:04.20 bitrate=   1.4kbits/s speed=0.136x elapsed=0:00:30.81    \nframe=  261 fps=8.3 q=21.0 size=       1KiB time=00:00:04.33 bitrate=   1.3kbits/s speed=0.138x elapsed=0:00:31.35    \nframe=  265 fps=8.3 q=16.0 size=       1KiB time=00:00:04.40 bitrate=   1.3kbits/s speed=0.138x elapsed=0:00:31.87    \nframe=  273 fps=8.4 q=7.0 size=       1KiB time=00:00:04.53 bitrate=   1.3kbits/s speed=0.14x elapsed=0:00:32.43    \nframe=  281 fps=8.5 q=20.0 size=       1KiB time=00:00:04.66 bitrate=   1.2kbits/s speed=0.142x elapsed=0:00:32.95    \n[out#0/matroska @ 00000228ee9acd80] video:4035KiB audio:0KiB subtitle:0KiB other streams:0KiB global headers:0KiB muxing overhead: 0.052008%\nframe=  300 fps=9.0 q=25.0 Lsize=    4037KiB time=00:00:04.98 bitrate=6636.8kbits/s speed=0.149x elapsed=0:00:33.47    \n",
  "seconds": 33.87869620323181,
  "probe_out": {}
}